<svg id="REPLACE_ICON" data-name="REPLACE ICON" xmlns="http://www.w3.org/2000/svg" width="33" height="33" viewBox="0 0 33 33">
  <g id="Grupo_14325" data-name="Grupo 14325">
    <rect id="Retângulo_1621" data-name="Retângulo 1621" width="33" height="33" fill="#ff2d55" opacity="0"/>
    <path id="Caminho_3135" data-name="Caminho 3135" d="M-2589.5-7370.016s-1.8-5.449,1.746-9.064,9.226-2.121,9.226-2.121Z" transform="translate(2606 7395)" fill="#ff2d55" opacity="0.3"/>
    <path id="Caminho_3143" data-name="Caminho 3143" d="M664.542-245.572l-3.342-3.32a1.993,1.993,0,0,0-1.41-.578H647.538v0l-.075,0a2,2,0,0,0-1.41.578l-3.342,3.32a1.975,1.975,0,0,0,0,2.8l9.505,9.443a2,2,0,0,0,1.41.58,2,2,0,0,0,1.411-.58l9.505-9.443A1.973,1.973,0,0,0,664.542-245.572Zm-7.4-2.4-2.636,2.619a1.243,1.243,0,0,1-.634.337,2,2,0,0,1-.248.024,2.01,2.01,0,0,1-.248-.024,1.242,1.242,0,0,1-.633-.337l-2.635-2.619Zm6.341,4.138-9.505,9.443a.5.5,0,0,1-.353.145.5.5,0,0,1-.353-.144l-9.5-9.443a.47.47,0,0,1-.142-.339.469.469,0,0,1,.141-.338l3.341-3.319a.491.491,0,0,1,.345-.142l.049,0,.033,0,.026,0a.484.484,0,0,1,.256.133l3.342,3.321a3.473,3.473,0,0,0,2.2,1c.09.009.18.013.271.013s.181,0,.271-.013a3.474,3.474,0,0,0,2.2-1l3.343-3.321a.484.484,0,0,1,.256-.133l.026,0,.034,0,.046,0a.489.489,0,0,1,.346.142l3.342,3.32a.467.467,0,0,1,.142.338A.468.468,0,0,1,663.485-243.832Z" transform="translate(-637.127 258.47)" fill="#ff2d55"/>
  </g>
</svg>
